<svg width="37" height="37" viewBox="0 0 37 37" fill="none" xmlns="http://www.w3.org/2000/svg">
<path d="M32.8565 12.242C32.6421 12.0262 32.3871 11.855 32.1061 11.7384C31.8252 11.6218 31.5239 11.5621 31.2197 11.5627H26.5947V10.4065C26.5947 8.2599 25.7419 6.20122 24.2241 4.68335C22.7062 3.16548 20.6475 2.31274 18.5009 2.31274C16.3543 2.31274 14.2956 3.16548 12.7778 4.68335C11.2599 6.20122 10.4072 8.2599 10.4072 10.4065V11.5627H5.78217C5.16885 11.5627 4.58066 11.8064 4.14698 12.2401C3.7133 12.6737 3.46967 13.2619 3.46967 13.8752V29.4846C3.46967 32.303 5.85443 34.6877 8.67279 34.6877H28.329C29.6923 34.6882 31.0016 34.1552 31.977 33.2027C32.4679 32.7344 32.8587 32.1715 33.126 31.548C33.3933 30.9245 33.5315 30.2533 33.5322 29.575V13.8752C33.5331 13.5719 33.4739 13.2713 33.3579 12.991C33.2419 12.7106 33.0715 12.4561 32.8565 12.242ZM12.7197 10.4065C12.7197 8.87321 13.3288 7.40273 14.413 6.31853C15.4971 5.23434 16.9676 4.62524 18.5009 4.62524C20.0342 4.62524 21.5047 5.23434 22.5889 6.31853C23.6731 7.40273 24.2822 8.87321 24.2822 10.4065V11.5627H12.7197V10.4065Z" fill="#5C40C8"/>
</svg>
