<svg width="37" height="37" viewBox="0 0 37 37" fill="none" xmlns="http://www.w3.org/2000/svg">
<path d="M18.5009 18.5007C20.1017 18.5007 21.6666 18.026 22.9976 17.1367C24.3286 16.2473 25.366 14.9833 25.9786 13.5043C26.5912 12.0254 26.7514 10.398 26.4391 8.82797C26.1269 7.25794 25.356 5.81577 24.2241 4.68384C23.0921 3.55191 21.65 2.78105 20.0799 2.46876C18.5099 2.15646 16.8825 2.31674 15.4036 2.92934C13.9246 3.54193 12.6606 4.57933 11.7712 5.91034C10.8819 7.24135 10.4072 8.80619 10.4072 10.407C10.4072 12.5536 11.2599 14.6123 12.7778 16.1301C14.2956 17.648 16.3543 18.5007 18.5009 18.5007ZM18.5009 20.8132C13.4842 20.8132 3.46967 23.912 3.46967 30.0632V34.6882H33.5322V30.0632C33.5322 23.912 23.5176 20.8132 18.5009 20.8132Z" fill="#5C40C8"/>
</svg>
